<?xml version="1.0" encoding="utf-8"?>
<!-- Svg Vector Icons : http://www.onlinewebfonts.com/icon -->
<!DOCTYPE svg PUBLIC "-//W3C//DTD SVG 1.1//EN" "http://www.w3.org/Graphics/SVG/1.1/DTD/svg11.dtd">
<svg version="1.1" xmlns="http://www.w3.org/2000/svg" xmlns:xlink="http://www.w3.org/1999/xlink" x="0px" y="0px" viewBox="0 0 1000 1000" enable-background="new 0 0 1000 1000" xml:space="preserve">
<metadata> Svg Vector Icons : http://www.onlinewebfonts.com/icon </metadata>
<g><path d="M714.4,59C608.5,59,532.7,154.9,500,205.5C467.3,154.9,391.4,59,285.5,59C133.6,59,10,196.5,10,365.5c0,79,53.4,192.3,118.2,251.6C217.8,732.8,469.8,941,500.9,941c31.7,0,278.2-204.1,369.5-322.4c65.9-60.3,119.6-173.8,119.6-253C990,196.5,866.4,59,714.4,59 M925,365.5c0,63.2-45.6,157.5-99.7,205.9c-1.5,1.4-2.8,2.8-4.2,4.5c-80.3,105.1-242,235.4-320.1,292.4c-58.1-42.7-233-175.7-322.8-292.9c-1.2-1.6-2.6-3.1-4.1-4.5C120.4,522.7,75,428.6,75,365.5c0-133,94.5-241.3,210.6-241.3c74.9,0,146.9,81.4,185.1,162c5.1,10.7,16.3,17.3,29.3,17.3c13,0,24.3-6.7,29.3-17.3c38.2-80.7,110.2-162,185.1-162C830.6,124.2,925,232.5,925,365.5"/></g>
</svg>