<?xml version="1.0" standalone="no"?>
<!DOCTYPE svg PUBLIC "-//W3C//DTD SVG 20010904//EN"
 "http://www.w3.org/TR/2001/REC-SVG-20010904/DTD/svg10.dtd">
<svg version="1.0" xmlns="http://www.w3.org/2000/svg"
 width="499.000000pt" height="110.000000pt" viewBox="0 0 499.000000 110.000000"
 preserveAspectRatio="xMidYMid meet">

<g transform="translate(0.000000,110.000000) scale(0.100000,-0.100000)"
fill="#000000" stroke="none">
<path d="M1227 735 c-171 -43 -203 -272 -51 -361 179 -105 380 109 263 280
-48 70 -130 102 -212 81z m128 -115 c24 -25 30 -39 30 -75 0 -37 -6 -50 -33
-77 -27 -27 -40 -33 -77 -33 -37 0 -50 6 -77 33 -76 76 -15 201 92 187 20 -3
46 -16 65 -35z"/>
<path d="M700 545 l0 -195 110 0 110 0 0 40 0 40 -70 0 -70 0 0 155 0 155 -40
0 -40 0 0 -195z"/>
<path d="M1634 726 c-3 -8 -4 -25 -2 -38 3 -21 8 -23 76 -26 39 -2 72 -5 72
-7 0 -3 -34 -70 -75 -148 -41 -79 -75 -147 -75 -150 0 -4 65 -7 145 -7 l145 0
0 40 0 40 -75 0 c-41 0 -75 2 -75 4 0 3 34 70 75 149 41 79 75 147 75 150 0 4
-63 7 -140 7 -113 0 -142 -3 -146 -14z"/>
<path d="M2080 545 l0 -195 115 0 115 0 0 40 0 40 -70 0 -70 0 0 40 0 40 65 0
65 0 0 35 0 35 -65 0 -65 0 0 40 0 40 70 0 70 0 0 40 0 40 -115 0 -115 0 0
-195z"/>
<path d="M2770 545 l0 -195 45 0 45 0 0 80 0 80 65 0 65 0 0 35 0 35 -65 0
-65 0 0 40 0 39 68 3 67 3 0 35 0 35 -112 3 -113 3 0 -196z"/>
<path d="M3170 545 l0 -195 115 0 115 0 0 40 0 40 -70 0 -70 0 0 40 0 40 65 0
65 0 0 35 0 35 -65 0 -65 0 0 40 0 40 70 0 70 0 0 40 0 40 -115 0 -115 0 0
-195z"/>
<path d="M3580 545 l0 -195 116 0 115 0 -3 38 -3 37 -67 3 -68 3 0 39 0 40 65
0 65 0 0 35 0 35 -65 0 -65 0 0 40 0 39 68 3 67 3 0 35 0 35 -112 3 -113 3 0
-196z"/>
<path d="M3990 545 l0 -197 89 4 c76 3 95 8 130 31 115 76 111 260 -7 326 -33
17 -65 25 -128 29 l-84 5 0 -198z m186 81 c29 -29 34 -41 34 -81 0 -40 -5 -52
-34 -81 -26 -26 -42 -34 -70 -34 l-36 0 0 108 c0 60 3 112 7 115 18 19 67 5
99 -27z"/>
<path d="M2502 428 c-20 -20 -14 -56 13 -74 23 -15 27 -15 50 0 44 29 28 86
-25 86 -14 0 -31 -5 -38 -12z"/>
</g>
</svg>
